<mxfile host="app.diagrams.net" modified="2023-07-08T01:14:28.539Z" agent="Mozilla/5.0 (Windows NT 10.0; Win64; x64) AppleWebKit/537.36 (KHTML, like Gecko) Chrome/114.0.0.0 Safari/537.36 Edg/114.0.1823.67" version="21.6.1" etag="_g94F-uNaOU7CPF7JyVr" type="github">
  <diagram name="第 1 页" id="Igp8dIhSqSDbQNjfvjnn">
    <mxGraphModel>
      <root>
        <mxCell id="0" />
        <mxCell id="1" parent="0" />
      </root>
    </mxGraphModel>
  </diagram>
</mxfile>
